<?xml version="1.0" encoding="UTF-8" standalone="no"?>
<!-- Created with Inkscape (http://www.inkscape.org/) -->
<svg xmlns:rdf="http://www.w3.org/1999/02/22-rdf-syntax-ns#" xmlns="http://www.w3.org/2000/svg" height="3e2mm" width="2.1e2mm" version="1.1" xmlns:cc="http://creativecommons.org/ns#" xmlns:dc="http://purl.org/dc/elements/1.1/" viewBox="0 0 744.09448819 1052.3622047">
 <metadata>
  <rdf:RDF>
   <cc:Work rdf:about="">
    <dc:format>image/svg+xml</dc:format>
    <dc:type rdf:resource="http://purl.org/dc/dcmitype/StillImage"/>
    <dc:title/>
   </cc:Work>
  </rdf:RDF>
 </metadata>
 <path d="m24 53c-31 31-20 42-20 42 11 2.3 29-17 33-38-2.1 13-13 39-4.1 39 20-.79 32-38 30-47"/>
 <path d="m36 94c50 6 84-64 41-39-27 15-25 75 43 8"/>
 <path d="m1.5e2 21c-10-1.4-16 5.6-21 14l-13 58c16 4.3 24-4.7 32-16 17-43-22-6.5-33-13"/>
 <path d="m1.7e2 6.6c10 5.4-10 77-20 92"/>
 <path d="m1.7e2 13c70-19 40 1.1e2-20 82"/>
 <path d="m2.1e2 85c33-15 32-26 32-26 1.1-5.9-6.7-9.8-16-2-9.4 10-26 61 20 27"/>
 <path d="m2.8e2 54c-19-10-23 12-13 19 13 6.7-3.1 32-19 17"/>
 <path d="m2.9e2 56c3.9 1.6 4.5-2.1 6.6-3.5-2.6 15-14 42-7.8 44"/>
 <path d="m3.1e2 33z"/>
 <path d="m3e2 36c3-.41 1.6-2.5 1.8-4"/>
 <path d="m3.5e2 53c-44-7.2-49 65-8.7 24 5.1-8.8 6.8-13 8.7-24z"/>
 <path d="m3.5e2 54c-14 33-8.4 73-48 70-25-14 37-41 46-50"/>
 <path d="m3.7e2 53c6.9-.79-8.1 44-8.1 44"/>
 <path d="m3.7e2 69c1.7-3.6 29-17 33-16 3.5.80-20 56 5.9 33"/>
 <path d="m4.3e2 11c13 8.2 37 7 47 .36 1.2 9.6-36 57-62 82 9.1-2.4 50 .17 50 .17 12 8.1 26-81 32-82 5.5-.026 5.1 40 10 38 3.8 3.6 20-38 26-38 4.8.50-15 88-6.6 84"/>
</svg>
