<svg id=mysvg xmlns:rdf="http://www.w3.org/1999/02/22-rdf-syntax-ns#" xmlns="http://www.w3.org/2000/svg" height="1000px" width="1000px" version="1.1" xmlns:cc="http://creativecommons.org/ns#" xmlns:dc="http://purl.org/dc/elements/1.1/">

	<g id="trans-move">
		<path class="path" style="stroke:#112233;fill:none" d="M 31.412367,20.266309 C 97.880684,274.0813 149.93757,278.98069 149.93779,278.98065 c 36.91548,0.95143 51.31042,-165.28166 68.15407,-173.49281 16.48193,-0.43158 18.08278,129.00092 69.20211,171.65654 47.812,-5.23463 84.70859,-167.44329 103.92772,-256.379834"/>
		
		<path class="path"
			style="stroke:#112233;fill:none"
			d="m 399.26335,155.43278 c 177.204,70.24484 233.59342,-135.67336 116.39042,-135.67336 -68.61927,0 -94.36297,95.70368 -96.50092,113.57392 -6.93602,51.58882 26.73473,220.04878 131.1234,105.13166"/>

		<path
	       style="fill:none;fill-rule:evenodd;stroke:#754d4d;stroke-width:1px;stroke-linecap:butt;stroke-linejoin:miter;stroke-opacity:1"
	       d="M 67.500003,83.969341 C 100.89286,69.147918 99.28572,57.719338 99.28572,57.719338 c 1.06488,-5.92055 -6.65514,-9.84258 -15.714297,-1.96428 -9.43954,10.13089 -26.24656,61.399702 20.082677,26.844823"
	       id="path4264"
	       inkscape:connector-curvature="0"
	       sodipodi:nodetypes="cccc" />
	    <path
	       style="fill:none;fill-rule:evenodd;stroke:#754d4d;stroke-width:1px;stroke-linecap:butt;stroke-linejoin:miter;stroke-opacity:1"
	       d="m 148.22651,21.291268 c -10.46738,-1.39933 -15.60824,5.64623 -21.2132,14.14213 l -13.38452,58.083773 c 15.70043,4.30902 24.34841,-4.70324 31.56726,-16.41498 16.59266,-42.955063 -22.43372,-8.968473 -32.80457,-15.677493"
	       id="path4266"
	       inkscape:connector-curvature="0"
	       sodipodi:nodetypes="ccccc" />
	    <path
	       style="fill:none;fill-rule:evenodd;stroke:#734c4c;stroke-width:1px;stroke-linecap:butt;stroke-linejoin:miter;stroke-opacity:1"
	       d="M 169.69225,6.6440584 C 176.04643,11.727738 160.5386,84.448661 151.50951,98.567941"
	       id="path4268"
	       inkscape:connector-curvature="0"
	       sodipodi:nodetypes="cc" />
	    <path
	       style="fill:none;fill-rule:evenodd;stroke:#714b4b;stroke-width:1px;stroke-linecap:butt;stroke-linejoin:miter;stroke-opacity:1"
	       d="M 165.39911,12.957498 C 236.46516,-6.3273416 211.00328,120.63547 151.25697,94.527331"
	       id="path4270"
	       inkscape:connector-curvature="0"
	       sodipodi:nodetypes="cc" />
	    <path
	       style="fill:none;fill-rule:evenodd;stroke:#754d4d;stroke-width:1px;stroke-linecap:butt;stroke-linejoin:miter;stroke-opacity:1"
	       d="m 206.62047,84.914971 c 33.39286,-14.821423 31.78572,-26.250003 31.78572,-26.250003 1.06488,-5.92055 -6.65514,-9.84258 -15.7143,-1.96428 -9.43954,10.13089 -26.24656,61.399702 20.08268,26.844823"
	       id="path4264-7"
	       inkscape:connector-curvature="0"
	       sodipodi:nodetypes="cccc" />
	    <path
	       style="fill:none;fill-rule:evenodd;stroke:#754d4d;stroke-width:1px;stroke-linecap:butt;stroke-linejoin:miter;stroke-opacity:1"
	       d="m 279.79079,54.400458 c -19.43423,-9.95771 -23.49624,12.01066 -13.33684,18.788083 13.3218,6.68871 -3.0928,32.362119 -19.34391,16.91877"
	       id="path4287"
	       inkscape:connector-curvature="0"
	       sodipodi:nodetypes="ccc" />
	    <path
	       style="fill:none;fill-rule:evenodd;stroke:#754d4d;stroke-width:1px;stroke-linecap:butt;stroke-linejoin:miter;stroke-opacity:1"
	       d="m 294.19355,56.141528 c 3.8507,1.59156 4.50662,-2.14153 6.56599,-3.53553 -2.60956,14.56303 -14.23226,42.484703 -7.82868,43.689093"
	       id="path4289"
	       inkscape:connector-curvature="0"
	       sodipodi:nodetypes="ccc" />
	    <path
	       style="fill:none;fill-rule:evenodd;stroke:#754d4d;stroke-width:1px;stroke-linecap:butt;stroke-linejoin:miter;stroke-opacity:1"
	       d="M 305.30523,32.655478 Z"
	       id="path4291"
	       inkscape:connector-curvature="0" />
	    <path
	       style="fill:none;fill-rule:evenodd;stroke:#754d4d;stroke-width:1px;stroke-linecap:butt;stroke-linejoin:miter;stroke-opacity:1"
	       d="m 304.80015,35.938478 c 3.02787,-0.4054 1.64005,-2.51555 1.76777,-4.04061"
	       id="path4293"
	       inkscape:connector-curvature="0"
	       sodipodi:nodetypes="cc" />
	    <path
	       style="fill:none;fill-rule:evenodd;stroke:#754d4d;stroke-width:1px;stroke-linecap:butt;stroke-linejoin:miter;stroke-opacity:0.77254902"
	       d="m 354.29763,52.984798 c -44.11283,-7.23179 -48.75743,65.304852 -8.71256,23.738593 5.07058,-8.834843 6.78257,-12.778583 8.71256,-23.738593 z"
	       id="path4295"
	       inkscape:connector-curvature="0"
	       sodipodi:nodetypes="ccc" />
	    <path
	       style="fill:none;fill-rule:evenodd;stroke:#754d4d;stroke-width:1px;stroke-linecap:butt;stroke-linejoin:miter;stroke-opacity:1"
	       d="m 354.29763,53.868688 c -14.26851,33.274503 -8.36592,72.526832 -47.98225,69.953062 -25.20541,-13.70269 36.81855,-40.880869 45.96194,-49.750009"
	       id="path4297"
	       inkscape:connector-curvature="0"
	       sodipodi:nodetypes="ccc" />
	    <path
	       style="fill:none;fill-rule:evenodd;stroke:#754d4d;stroke-width:1px;stroke-linecap:butt;stroke-linejoin:miter;stroke-opacity:1"
	       d="m 372.73292,53.363608 c 6.89769,-0.78593 -8.08122,43.941633 -8.08122,43.941633"
	       id="path4299"
	       inkscape:connector-curvature="0"
	       sodipodi:nodetypes="cc" />
	    <path
	       style="fill:none;fill-rule:evenodd;stroke:#6d4848;stroke-width:1px;stroke-linecap:butt;stroke-linejoin:miter;stroke-opacity:0.92102398"
	       d="m 366.92454,68.768438 c 1.7305,-3.61912 29.1868,-16.56561 32.93456,-15.688 3.54605,0.79523 -19.59892,56.490362 5.906,33.457133"
	       id="path4301"
	       inkscape:connector-curvature="0"
	       sodipodi:nodetypes="ccc" />
	    <path
	       style="fill:none;fill-rule:evenodd;stroke:#754d4d;stroke-width:1px;stroke-linecap:butt;stroke-linejoin:miter;stroke-opacity:1"
	       d="m 426.57302,10.832598 c 13.05917,8.16597 36.56607,7.00235 47.17515,0.35714 1.15897,9.62231 -36.39136,56.59187 -61.61931,82.074903 9.09137,-2.35702 49.6964,0.16774 49.6964,0.16774 11.71198,8.132069 25.87415,-80.955773 32.10331,-82.242643 5.46739,-0.0258 5.11928,40.12688 10.35714,37.95818 3.82389,3.57712 20.03257,-38.1626 26.031,-37.95818 4.84979,0.49723 -15.00991,87.920673 -6.62201,83.577433"
	       id="path4305"
	       inkscape:connector-curvature="0"
	       sodipodi:nodetypes="cccccccc" />

	</g>
		
</svg>